<?xml version="1.0" encoding="utf-8"?>
<!-- Generator: Adobe Illustrator 26.0.2, SVG Export Plug-In . SVG Version: 6.00 Build 0)  -->
<svg version="1.1" id="Layer_1" xmlns="http://www.w3.org/2000/svg" xmlns:xlink="http://www.w3.org/1999/xlink" x="0px" y="0px"
	 viewBox="0 0 1024 1024" style="enable-background:new 0 0 1024 1024;" xml:space="preserve">
<style type="text/css">
	.st0{fill:none;stroke:#000000;stroke-width:15;stroke-miterlimit:10;}
</style>
<g>
	<g>
		<line class="st0" x1="112.5" y1="510.6" x2="337.2" y2="511.5"/>
		<g>
			<polygon points="161.9,572.2 172.2,561.2 118.2,510.6 172.6,460.5 162.4,449.5 96.2,510.6 			"/>
		</g>
	</g>
</g>
<g>
	<g>
		<line class="st0" x1="906.8" y1="511.5" x2="682.1" y2="510.5"/>
		<g>
			<polygon points="857.4,449.9 847.1,460.8 901,511.4 846.7,561.6 856.9,572.6 923.1,511.5 			"/>
		</g>
	</g>
</g>
<g>
	<g>
		<line class="st0" x1="508" y1="92.5" x2="507.1" y2="317.3"/>
		<g>
			<polygon points="446.5,142 457.4,152.3 508,98.3 558.2,152.7 569.2,142.5 508.1,76.3 			"/>
		</g>
	</g>
</g>
<g>
	<g>
		<path d="M496.5,564.5c0.1-7.2,0.7-13.4,1.6-18.7c1-5.3,2.5-10.2,4.5-14.6s4.8-8.7,8.3-12.7c3.5-4,7.8-8.4,12.9-13.1
			c4.4-4.2,8.7-8.5,12.9-12.9c4.2-4.4,7.9-9,11.2-13.8c3.3-4.8,5.9-10,7.9-15.5c1.9-5.5,2.9-11.5,2.9-17.9c0-6.9-1.1-13.3-3.2-19
			c-2.2-5.7-5.3-10.5-9.3-14.4c-4-3.9-9-7-14.8-9.1c-5.8-2.2-12.4-3.2-19.7-3.2c-6.7,0-13,1-18.9,2.9c-5.9,1.9-11,4.7-15.5,8.4
			c-4.4,3.6-8,8.2-10.7,13.6c-2.7,5.4-4.1,11.6-4.4,18.5h-20.5c0.3-9.3,2.3-17.8,6-25.4c3.6-7.6,8.6-14,14.8-19.4
			c6.2-5.4,13.5-9.5,21.9-12.4c8.4-2.9,17.5-4.4,27.3-4.4c10.4,0,19.7,1.5,28,4.5c8.3,3,15.4,7.3,21.2,12.9
			c5.8,5.6,10.3,12.3,13.5,20.1c3.2,7.8,4.8,16.6,4.8,26.2c0,7.9-1.2,15.2-3.7,22.1c-2.5,6.9-5.7,13.4-9.7,19.5
			c-4,6.1-8.6,11.8-13.8,17.1c-5.2,5.3-10.6,10.3-16.1,15c-3.8,3.4-6.8,6.8-9.2,10.1c-2.4,3.3-4.3,6.8-5.8,10.5
			c-1.5,3.7-2.5,7.6-3.1,11.7c-0.6,4.1-0.9,8.6-0.9,13.5H496.5z M492.5,621.3c0-4,1.3-7.4,3.9-10.2c2.6-2.8,6.2-4.2,10.6-4.2
			s8,1.4,10.8,4.2c2.7,2.8,4.1,6.2,4.1,10.2c0,3.9-1.4,7.1-4.1,9.7c-2.7,2.6-6.3,3.9-10.8,3.9s-8-1.3-10.6-3.9
			C493.8,628.4,492.5,625.1,492.5,621.3z"/>
	</g>
</g>
<g>
	<g>
		<line class="st0" x1="507.2" y1="925.5" x2="508.1" y2="700.8"/>
		<g>
			<polygon points="568.8,876 557.8,865.8 507.2,919.7 457.1,865.4 446.1,875.5 507.2,941.8 			"/>
		</g>
	</g>
</g>
</svg>
